<svg width="49" height="41" viewBox="0 0 49 41" fill="none" xmlns="http://www.w3.org/2000/svg">
<path fill-rule="evenodd" clip-rule="evenodd" d="M22.9486 12.1891C23.5465 12.7348 23.4272 14.1273 23.2479 14.6129C23.0687 14.9755 22.2915 15.1571 21.5736 15.0363C20.7972 14.8546 20.0801 15.5197 19.8408 16.6104C19.6022 17.6395 20.0201 18.5485 20.7372 18.791C21.5736 18.9118 22.1122 20.1834 22.1122 20.6082C22.1722 21.0916 21.6336 21.6373 20.9165 21.819C20.1994 22.1215 19.9008 23.1506 20.1994 24.1204C20.4986 25.1496 21.3351 25.7546 22.1122 25.5129C22.7701 25.2704 23.6065 25.4521 23.7851 25.8154C23.9658 26.1794 24.2636 27.5719 23.7258 28.1183C23.2479 28.7226 23.4865 29.7524 24.2044 30.4798C24.9815 31.1448 26.0565 31.2665 26.5336 30.7215C27.0744 30.1157 28.4494 30.2974 28.8651 30.4798C29.2851 30.6006 29.4644 31.3873 29.2851 32.1139C29.1658 32.9013 29.8222 33.688 30.8379 33.9305C31.8551 34.1129 32.8108 33.688 32.9915 32.9621C33.1686 32.1747 34.4251 31.5682 34.8437 31.5682C35.2615 31.5082 35.8579 32.0539 36.0994 32.7805C36.338 33.5671 37.2929 33.8704 38.3108 33.5672C39.2665 33.2039 39.9237 32.3564 39.6844 31.629C39.4451 30.9024 40.2808 29.6916 40.6415 29.4499C40.9401 29.2067 41.7165 29.3884 42.3158 29.9341C42.7937 30.4798 43.8687 30.2366 44.5273 29.4499C45.3037 28.6625 45.363 27.5718 44.7658 27.0869C44.2887 26.5427 44.3458 25.1496 44.5273 24.7855C44.7658 24.3621 45.4822 24.1204 46.2001 24.3021C46.9772 24.483 47.8144 23.7571 47.9337 22.7273C48.2315 21.6981 47.8144 20.7284 47.0351 20.5474C46.3194 20.3643 45.7215 19.0942 45.6615 18.6694C45.6015 18.246 46.1394 17.7003 46.858 17.3978C47.5751 17.2161 47.9337 16.2471 47.5751 15.1571C47.3358 14.1273 46.3816 13.5816 45.7808 13.764C45.0051 14.0064 43.8094 13.219 43.5694 12.8565C43.2716 12.4931 43.5094 11.705 44.0472 11.16C44.5273 10.6151 44.2887 9.52441 43.5694 8.7978C42.7937 8.13198 41.7758 8.01114 41.2387 8.5561C40.7608 9.10179 39.2665 9.04023 38.9087 8.85785C38.5494 8.67693 38.3108 7.89028 38.4901 7.16293C38.6694 6.43558 37.9501 5.58884 36.9351 5.40646C35.8579 5.16474 34.9629 5.58884 34.7236 6.37552C34.6636 7.10287 33.3501 7.70787 32.9301 7.7694C32.5122 7.7694 31.9751 7.22372 31.6758 6.49637C31.4973 5.77049 30.4794 5.4665 29.5236 5.77048C28.5065 6.07299 27.9101 6.98127 28.1486 7.70788C28.3272 8.4345 27.5515 9.52442 27.1337 9.82766C26.8344 10.0701 26.0565 9.88774 25.5186 9.34351C24.9815 8.85788 23.9051 9.04025 23.1879 9.82766C22.5308 10.6151 22.4108 11.705 22.9486 12.1891ZM31.3165 11.6449C35.7386 10.2518 40.343 12.674 41.7758 17.0953C43.2115 21.5165 40.7608 26.1794 36.398 27.6327C32.0944 29.0251 27.4322 26.6028 26.0565 22.2424C24.6222 17.8211 27.0744 13.0974 31.3165 11.6449Z" fill="#5A27F2"/>
<path fill-rule="evenodd" clip-rule="evenodd" d="M2.32798 24.9071C2.80655 25.3312 2.68728 26.4218 2.56799 26.6027C2.38726 26.9661 1.8494 27.0869 1.37082 26.9661C0.773687 26.8452 0.236558 27.3902 0.0565491 28.1182C-0.0634566 28.9042 0.236552 29.6308 0.773686 29.6916C1.31154 29.8732 1.73012 30.7822 1.79012 31.084C1.79012 31.4473 1.43084 31.8114 0.892979 31.993C0.355845 32.1747 0.056554 32.9013 0.296565 33.6279C0.535131 34.4153 1.19154 34.8387 1.73012 34.657C2.20797 34.4761 2.80655 34.597 2.92584 34.9002C3.10512 35.1426 3.34369 36.111 2.92584 36.5959C2.56799 37.0192 2.74655 37.7466 3.34369 38.2908C3.88227 38.8358 4.5987 38.8966 4.95799 38.4725C5.37584 38.0491 6.393 38.17 6.69084 38.23C6.93085 38.4117 7.11013 38.9574 6.93084 39.5639C6.87084 40.0473 7.34869 40.6523 8.12512 40.7747C8.90298 40.9556 9.56012 40.7131 9.68013 40.1081C9.85942 39.5639 10.7558 39.139 11.0544 39.139C11.4137 39.0782 11.7723 39.4423 12.0108 40.0473C12.1301 40.5315 12.848 40.7131 13.5659 40.5315C14.2823 40.2897 14.7601 39.6847 14.5808 39.139C14.4616 38.6549 14.9987 37.7466 15.2387 37.5649C15.5373 37.3825 16.0159 37.5042 16.4937 37.9283C16.9116 38.2301 17.6294 38.17 18.108 37.5649C18.6451 37.0192 18.7051 36.1711 18.3473 35.8077C17.928 35.4452 18.0487 34.4153 18.108 34.1128C18.2873 33.8095 18.8244 33.6279 19.3623 33.8095C19.9601 33.9304 20.4987 33.3855 20.618 32.6596C20.7973 31.8722 20.4987 31.1448 19.9601 31.024C19.4216 30.9632 19.0037 29.9948 18.9437 29.6308C18.8844 29.3883 19.3023 28.965 19.8409 28.7833C20.3794 28.6017 20.5587 27.875 20.3794 27.0869C20.1394 26.361 19.5423 25.9376 19.0037 26.1186C18.4666 26.2401 17.6294 25.6937 17.3909 25.452C17.2101 25.1495 17.3909 24.5437 17.7487 24.1804C18.108 23.7571 17.9873 22.9697 17.3909 22.4848C16.8516 21.9398 16.0159 21.8189 15.7166 22.3031C15.298 22.6671 14.2823 22.6056 13.9837 22.4848C13.7444 22.3639 13.6251 21.8189 13.7444 21.2732C13.8044 20.7283 13.3259 20.1233 12.548 19.9409C11.8316 19.82 11.1137 20.1233 10.9944 20.6682C10.8751 21.2132 9.97871 21.6373 9.62014 21.6981C9.32157 21.7582 8.96227 21.3348 8.72298 20.7891C8.60369 20.2434 7.82656 19.9409 7.11014 20.2434C6.45228 20.4265 5.9737 21.0916 6.09298 21.6373C6.27299 22.1823 5.6744 23.0304 5.43583 23.2114C5.13727 23.393 4.65942 23.2722 4.18084 22.8481C3.82155 22.4848 3.04512 22.6671 2.56799 23.2114C2.02869 23.8171 1.9094 24.5438 2.32798 24.9071ZM8.48441 24.5437C11.7123 23.5139 15.0594 25.2703 16.0759 28.4808C17.0908 31.6898 15.358 35.2027 12.1901 36.1711C8.96226 37.2624 5.61511 35.5052 4.59868 32.2347C3.52297 29.025 5.31655 25.5729 8.48441 24.5437Z" fill="white"/>
<path fill-rule="evenodd" clip-rule="evenodd" d="M5.67447 4.92222C6.03304 5.22473 5.97376 6.07296 5.79447 6.31467C5.73447 6.49633 5.25662 6.67798 4.89805 6.55713C4.4202 6.49633 3.94161 6.92116 3.8216 7.52619C3.7016 8.13194 3.94161 8.6769 4.42019 8.79775C4.83876 8.91861 5.13733 9.64596 5.19733 9.94847C5.19733 10.1916 4.89804 10.4942 4.42019 10.6751C4.00234 10.7967 3.8216 11.4024 4.00234 12.0074C4.1809 12.6139 4.71949 12.9765 5.13734 12.7956C5.55519 12.674 6.03304 12.7348 6.15376 12.9765C6.27305 13.219 6.45234 14.0672 6.09305 14.3697C5.79448 14.6729 5.97376 15.278 6.45234 15.7621C6.87092 16.1862 7.46805 16.247 7.82662 15.8837C8.12519 15.5804 8.96234 15.6405 9.20236 15.7621C9.44092 15.8222 9.50093 16.247 9.44092 16.7312C9.32164 17.2161 9.73948 17.6394 10.3366 17.7603C10.9945 17.8819 11.5331 17.7003 11.5931 17.2161C11.7123 16.7312 12.4888 16.4287 12.7273 16.3686C13.0266 16.3686 13.3259 16.6704 13.4452 17.1553C13.5659 17.5794 14.1631 17.7603 14.7602 17.5794C15.2981 17.3977 15.7166 16.8535 15.5373 16.4287C15.4773 16.0053 15.9559 15.2779 16.0759 15.1571C16.3152 15.0362 16.7923 15.1571 17.0909 15.4596C17.4502 15.7621 18.1081 15.6405 18.5259 15.1571C18.8845 14.6729 19.0038 14.0672 18.5859 13.7039C18.2874 13.4607 18.3474 12.6139 18.4666 12.3107C18.5859 12.0675 19.0038 12.0075 19.4816 12.0675C19.9009 12.1891 20.3795 11.7657 20.4988 11.16C20.5588 10.5542 20.3795 10.0093 19.9602 9.88767C19.4816 9.76681 19.1231 9.04022 19.0638 8.7377C19.0638 8.49525 19.4216 8.13192 19.8409 8.01106C20.2588 7.8902 20.4395 7.28447 20.2588 6.67798C20.0802 6.07295 19.6024 5.70962 19.1231 5.83048C18.7052 6.01213 18.0488 5.46647 17.8681 5.34561C17.7488 5.10389 17.8681 4.68052 18.1081 4.31575C18.4666 3.95317 18.3474 3.34813 17.8681 2.92329C17.3909 2.49992 16.7924 2.37907 16.5538 2.80244C16.1952 3.10495 15.3581 3.04415 15.1195 2.92329C14.9388 2.80244 14.7602 2.37906 14.8795 1.89343C14.9988 1.47079 14.5209 0.985909 13.9838 0.864319C13.3259 0.74346 12.7873 0.985924 12.6681 1.41003C12.5481 1.89346 11.8316 2.25676 11.5331 2.31829C11.2931 2.31829 10.9945 1.95425 10.8152 1.53088C10.6959 1.10751 10.1581 0.9251 9.50092 1.10749C8.96234 1.28914 8.60376 1.8334 8.72305 2.25677C8.84305 2.68161 8.3652 3.40895 8.12518 3.5298C7.9459 3.71072 7.46805 3.52978 7.16948 3.28806C6.87091 2.92329 6.27305 3.04417 5.79447 3.5298C5.4359 3.95317 5.31662 4.61971 5.67447 4.92222ZM10.6359 4.61972C13.2066 3.77151 16.0159 5.16466 16.7924 7.82941C17.6295 10.4334 16.2552 13.219 13.6252 14.0672C11.0545 14.9146 8.36521 13.4607 7.46806 10.8575C6.63091 8.2528 8.06518 5.46646 10.6359 4.61972Z" fill="white"/>
</svg>
